HIERARCHY
ROOT Hips
{
	OFFSET -0.001795 -0.223333 0.028219
	CHANNELS 6 Xposition Yposition Zposition Zrotation Yrotation Xrotation 
	JOINT LeftUpLeg
	{
		OFFSET 0.069520 -0.091406 -0.006815
		CHANNELS 3 Zrotation Yrotation Xrotation
		JOINT LeftLeg
		{
			OFFSET 0.034277 -0.375199 -0.004496
			CHANNELS 3 Zrotation Yrotation Xrotation
			JOINT LeftFoot
			{
				OFFSET -0.013596 -0.397961 -0.043693
				CHANNELS 3 Zrotation Yrotation Xrotation
				JOINT LeftToe
				{
					OFFSET 0.026358 -0.055791 0.119288
					CHANNELS 3 Zrotation Yrotation Xrotation
					End Site
					{
						OFFSET 0.000000 0.000000 0.000000
					}
				}
			}
		}
	}
	JOINT RightUpLeg
	{
		OFFSET -0.067670 -0.090522 -0.004320
		CHANNELS 3 Zrotation Yrotation Xrotation
		JOINT RightLeg
		{
			OFFSET -0.038290 -0.382569 -0.008850
			CHANNELS 3 Zrotation Yrotation Xrotation
			JOINT RightFoot
			{
				OFFSET 0.015774 -0.398415 -0.042312
				CHANNELS 3 Zrotation Yrotation Xrotation
				JOINT RightToe
				{
					OFFSET -0.025372 -0.048144 0.123348
					CHANNELS 3 Zrotation Yrotation Xrotation
					End Site
					{
						OFFSET 0.000000 0.000000 0.000000
					}
				}
			}
		}
	}
	JOINT Spine
	{
		OFFSET -0.002533 0.108963 -0.026696
		CHANNELS 3 Zrotation Yrotation Xrotation
		JOINT Spine1
		{
			OFFSET 0.005487 0.135180 0.001092
			CHANNELS 3 Zrotation Yrotation Xrotation
			JOINT Spine2
			{
				OFFSET 0.001457 0.052922 0.025425
				CHANNELS 3 Zrotation Yrotation Xrotation
				JOINT Neck
				{
					OFFSET -0.002778 0.213870 -0.042857
					CHANNELS 3 Zrotation Yrotation Xrotation
					JOINT Head
					{
						OFFSET 0.005152 0.064970 0.051349
						CHANNELS 3 Zrotation Yrotation Xrotation
						End Site
						{
							OFFSET 0.000000 0.000000 0.000000
						}
					}
				}
				JOINT LeftShoulder
				{
					OFFSET 0.078845 0.121749 -0.034090
					CHANNELS 3 Zrotation Yrotation Xrotation
					JOINT LeftArm
					{
						OFFSET 0.090977 0.030469 -0.008868
						CHANNELS 3 Zrotation Yrotation Xrotation
						JOINT LeftForeArm
						{
							OFFSET 0.259612 -0.012772 -0.027456
							CHANNELS 3 Zrotation Yrotation Xrotation
							JOINT LeftHand
							{
								OFFSET 0.249234 0.008986 -0.001171
								CHANNELS 3 Zrotation Yrotation Xrotation
								End Site
								{
									OFFSET 0.000000 0.000000 0.000000
								}
							}
						}
					}
				}
				JOINT RightShoulder
				{
					OFFSET -0.081759 0.118833 -0.038615
					CHANNELS 3 Zrotation Yrotation Xrotation
					JOINT RightArm
					{
						OFFSET -0.096012 0.032551 -0.009143
						CHANNELS 3 Zrotation Yrotation Xrotation
						JOINT RightForeArm
						{
							OFFSET -0.253742 -0.013329 -0.021401
							CHANNELS 3 Zrotation Yrotation Xrotation
							JOINT RightHand
							{
								OFFSET -0.255298 0.007772 -0.005559
								CHANNELS 3 Zrotation Yrotation Xrotation
								End Site
								{
									OFFSET 0.000000 0.000000 0.000000
								}
							}
						}
					}
				}
			}
		}
	}
}
MOTION
Frames: 7
Frame Time: 0.050000
0.000000 0.932525 0.000000 0.851222 -24.695990 -3.801595 2.129597 -0.405615 -20.463545 -6.739339 4.165806 25.665739 9.058517 17.071523 9.677965 0.000000 0.000000 0.000000 -2.876058 0.056466 5.451150 5.770524 -0.155949 7.248364 -2.562646 -7.728418 3.266430 0.000000 0.000000 0.000000 2.060595 -0.404481 15.086324 5.527424 0.086115 -33.214287 -1.030030 22.375584 31.724820 6.831966 -3.837139 -8.993333 0.000000 0.000000 0.000000 -15.078591 5.447365 -4.492382 -34.954245 0.455917 -5.868641 10.871522 -12.627701 -0.688299 0.000000 0.000000 0.000000 7.771695 -6.342580 -2.521131 23.335849 7.968674 -3.017515 -17.440085 12.443604 -0.792559 0.000000 0.000000 0.000000 
-0.011415 0.933122 0.023147 1.319940 -27.570252 -3.314145 1.083252 -0.494461 -21.249226 -6.036101 2.006569 11.859309 10.229091 17.840811 13.940191 0.000000 0.000000 0.000000 -2.853615 0.116414 7.155692 4.090330 -0.023846 5.687253 -1.567340 -5.239795 2.599557 0.000000 0.000000 0.000000 0.583095 -0.122929 15.246665 5.866423 0.492081 -35.102864 4.221707 28.624163 33.745410 7.593983 -4.073246 -7.502384 0.000000 0.000000 0.000000 -12.529034 -1.581357 -1.534573 -32.808210 -2.256381 -4.636566 12.881982 -14.173655 -1.254144 0.000000 0.000000 0.000000 9.334710 -8.236537 -3.007586 16.170768 8.505030 -2.628180 -19.505277 15.577040 -1.191862 0.000000 0.000000 0.000000 
-0.022416 0.932802 0.048958 1.744764 -29.816071 -3.041608 0.071660 -0.553835 -22.500895 -3.750786 0.832845 4.263402 13.236164 19.648033 26.154088 0.000000 0.000000 0.000000 -3.114671 0.238265 7.755659 3.036713 0.118978 6.392331 -1.173613 -4.516912 2.762879 0.000000 0.000000 0.000000 1.988413 -0.329621 12.763537 1.366533 0.232442 -29.675604 5.683714 29.128658 29.712968 6.695938 -3.522857 -7.141932 0.000000 0.000000 0.000000 -10.511866 1.104636 -2.295351 -28.589615 -7.512719 -2.746438 12.589371 -22.454736 -2.014623 0.000000 0.000000 0.000000 5.131529 -4.133200 -1.448827 15.781424 9.930877 -2.076877 -23.071749 16.156314 -1.663635 0.000000 0.000000 0.000000 
-0.033504 0.930893 0.078157 3.498558 -28.612928 -4.005238 -2.642798 -1.255199 -22.191214 -0.922727 0.175957 2.262541 14.223598 20.059532 33.767457 0.000000 0.000000 0.000000 -4.786047 0.585055 10.466807 3.824070 0.037636 6.564921 -2.932456 -7.190078 1.634647 0.000000 0.000000 0.000000 -0.265588 -0.030658 13.701757 1.268835 1.172009 -36.078763 10.575454 30.522763 36.793038 8.959485 -4.374445 -10.259427 0.000000 0.000000 0.000000 -6.157652 -6.286257 1.244613 -24.815917 -12.574123 -1.845282 17.316489 -24.354733 -3.544786 0.000000 0.000000 0.000000 2.889698 -8.567328 -3.292569 14.944716 12.688801 -2.079896 -23.719652 18.642540 -1.830159 0.000000 0.000000 0.000000 
-0.044907 0.928338 0.111248 3.721417 -29.768436 -4.411048 -4.465950 -1.582866 -19.684148 2.917427 -0.425931 -0.055020 17.481862 22.928270 37.937236 0.000000 0.000000 0.000000 -5.710971 0.998749 13.069337 3.812095 0.055314 6.854922 -2.156608 -5.398180 1.366538 0.000000 0.000000 0.000000 -1.510263 0.183051 13.985554 2.408558 1.032027 -35.815863 12.082874 32.806039 35.576643 7.520764 -3.244701 -8.852699 0.000000 0.000000 0.000000 -0.898250 -10.717291 3.289616 -21.831150 -15.039092 -1.319073 21.281440 -25.575596 -5.045360 0.000000 0.000000 0.000000 1.228256 -7.231333 -2.861800 12.495011 13.765463 -1.774542 -26.175989 20.808123 -2.350754 0.000000 0.000000 0.000000 
-0.055311 0.926232 0.148598 4.095815 -27.981859 -3.866332 -6.175283 -1.928967 -19.232407 4.587200 -0.642125 -0.253221 20.407005 26.215478 38.511855 0.000000 0.000000 0.000000 -6.582297 1.280226 15.214056 4.780007 -0.066295 6.672366 -2.365541 -6.998255 3.182448 0.000000 0.000000 0.000000 -3.283025 0.330980 12.624416 5.628671 0.658844 -35.562004 10.875951 33.060374 36.259472 6.241514 -1.806097 -9.755558 0.000000 0.000000 0.000000 3.196129 -11.530619 3.869458 -17.101782 -19.348837 -1.098885 23.158900 -22.477928 -5.092937 0.000000 0.000000 0.000000 -0.833149 -6.031236 -2.599039 11.736748 15.870780 -1.640562 -30.269154 20.783887 -2.638223 0.000000 0.000000 0.000000 
-0.062503 0.924315 0.190026 3.844771 -24.106668 -3.841151 -8.124215 -2.211469 -16.726095 4.847676 -0.671256 -0.078628 19.298323 26.872770 32.493469 0.000000 0.000000 0.000000 -6.429558 1.121730 17.439678 6.214777 -0.244022 8.046493 -3.629696 -11.500517 7.650937 0.000000 0.000000 0.000000 -3.997531 0.361450 12.654333 7.080690 0.393574 -35.398053 9.169463 31.473367 35.880400 5.702379 -1.079862 -10.472315 0.000000 0.000000 0.000000 7.791693 -13.468177 4.780616 -12.250087 -20.964427 -1.291316 24.703675 -18.638943 -4.825470 0.000000 0.000000 0.000000 -2.493742 -6.066797 -2.852741 10.702151 18.362282 -1.443193 -32.452538 20.368072 -2.588666 0.000000 0.000000 0.000000 
